<?xml version="1.0" encoding="UTF-8"?>
<svg width="38px" height="38px" viewBox="0 0 38 38" version="1.1" xmlns="http://www.w3.org/2000/svg" xmlns:xlink="http://www.w3.org/1999/xlink">
    <!-- Generator: Sketch 53.1 (72631) - https://sketchapp.com -->
    <title>icon</title>
    <desc>Created with Sketch.</desc>
    <g id="Desktop" stroke="none" stroke-width="1" fill="none" fill-rule="evenodd" stroke-linecap="round" stroke-linejoin="round">
        <g id="Home" transform="translate(-981.000000, -1626.000000)" stroke="#423F3A" stroke-width="2.3">
            <g id="intro" transform="translate(360.000000, 1422.000000)">
                <g id="icons-x3" transform="translate(40.000000, 157.000000)">
                    <g id="3" transform="translate(500.000000, 0.000000)">
                        <g id="icon" transform="translate(83.000000, 49.000000)">
                            <circle id="Oval" cx="17" cy="17" r="17"></circle>
                            <path d="M32.258311,24.503414 L22.6451085,18.5908742 C22.4765985,18.4872318 22.288249,18.4200323 22.0921906,18.3936033 L18.0513845,17.8489039 C17.4281536,17.7648932 16.8241381,18.1017908 16.5681486,18.6761982 L14.142323,24.1194406 C13.9117332,24.6368513 14.0115349,25.2418852 14.3960834,25.6578273 L17.7252412,29.2587531 C18.0313292,29.5898279 18.1615378,30.0468357 18.0759052,30.4895177 L17.3977823,33.9951267" id="Path"></path>
                            <path d="M5.83527833,4.18029115 L4.25140604,7.92555406 C4.11018102,8.2594974 4.10237226,8.63487876 4.2295876,8.97440625 L6.2644274,14.4052316 C6.43375821,14.8571622 6.82151033,15.191801 7.29334708,15.2932124 L11.0882305,16.1088441 C11.5149204,16.200552 11.8755238,16.4838109 12.0656774,16.876642 L12.7395928,18.2688711 C12.9762419,18.7577567 13.4715757,19.0683 14.0147256,19.0682997 L16.3934081,19.0682997" id="Path"></path>
                            <path d="M21.3311449,0.557550417 L22.9839805,3.51810042 C23.3057454,4.09444402 23.1868314,4.81663381 22.6972649,5.25938563 L17.9317983,9.56915833 C17.8509195,9.64230257 17.7618661,9.70586426 17.6664071,9.75858083 L15.4985954,10.9557244 C15.2889089,11.0715212 15.0532843,11.1322586 14.8137486,11.1322588 L11.0338376,11.1322588 C10.463933,11.1322586 9.94951389,11.4737611 9.72827479,11.9989701 L8.25366469,15.4996119" id="Path"></path>
                        </g>
                    </g>
                </g>
            </g>
        </g>
    </g>
</svg>