<?xml version="1.0" encoding="UTF-8"?>
<svg width="41px" height="38px" viewBox="0 0 41 38" version="1.1" xmlns="http://www.w3.org/2000/svg" xmlns:xlink="http://www.w3.org/1999/xlink">
    <!-- Generator: Sketch 53.1 (72631) - https://sketchapp.com -->
    <title>icon</title>
    <desc>Created with Sketch.</desc>
    <g id="Desktop" stroke="none" stroke-width="1" fill="none" fill-rule="evenodd" stroke-linecap="round" stroke-linejoin="round">
        <g id="Home" transform="translate(-729.000000, -1626.000000)" stroke="#423F3A" stroke-width="2.3">
            <g id="intro" transform="translate(360.000000, 1422.000000)">
                <g id="icons-x3" transform="translate(40.000000, 157.000000)">
                    <g id="2" transform="translate(250.000000, 0.000000)">
                        <g id="icon" transform="translate(81.000000, 49.000000)">
                            <path d="M3.09090909,19.2386218 L3.09090909,32.4545455 C3.09090909,33.3080764 3.78283266,34 4.63636364,34 L32.4545455,34 C33.3080764,34 34,33.3080764 34,32.4545455 L34,19.2389232" id="Path"></path>
                            <path d="M4.25664739,0 L32.8342617,0 C33.5242766,1.12302934e-07 34.1306912,0.457419481 34.320253,1.12088534 L37.0909091,10.8181818 L0,10.8181818 L2.77065614,1.12088534 C2.9602179,0.457419481 3.56663245,1.12302937e-07 4.25664739,0 Z" id="Path"></path>
                            <path d="M12.3636364,10.8181818 L12.3636364,13.9090909 C12.3636364,17.3232148 9.59594209,20.0909091 6.18181818,20.0909091 C2.76769427,20.0909091 0,17.3232148 0,13.9090909 L0,10.8181818" id="Path"></path>
                            <path d="M24.7272727,10.8181818 L24.7272727,13.9090909 C24.7272727,17.3232148 21.9595785,20.0909091 18.5454545,20.0909091 C15.1313306,20.0909091 12.3636364,17.3232148 12.3636364,13.9090909 L12.3636364,10.8181818" id="Path"></path>
                            <path d="M37.0909091,10.8181818 L37.0909091,13.9090909 C37.0909091,17.3232148 34.3232148,20.0909091 30.9090909,20.0909091 C27.494967,20.0909091 24.7272727,17.3232148 24.7272727,13.9090909 L24.7272727,10.8181818" id="Path"></path>
                        </g>
                    </g>
                </g>
            </g>
        </g>
    </g>
</svg>